<?xml version="1.0" encoding="utf-8" standalone="no"?>
<!DOCTYPE svg PUBLIC "-//W3C//DTD SVG 1.1//EN"
  "http://www.w3.org/Graphics/SVG/1.1/DTD/svg11.dtd">
<svg xmlns:xlink="http://www.w3.org/1999/xlink" width="510.48pt" height="324pt" viewBox="0 0 510.48 324" xmlns="http://www.w3.org/2000/svg" version="1.1">
 <metadata>
  <rdf:RDF xmlns:dc="http://purl.org/dc/elements/1.1/" xmlns:cc="http://creativecommons.org/ns#" xmlns:rdf="http://www.w3.org/1999/02/22-rdf-syntax-ns#">
   <cc:Work>
    <dc:type rdf:resource="http://purl.org/dc/dcmitype/StillImage"/>
    <dc:date>2026-01-27T17:39:11.288469</dc:date>
    <dc:format>image/svg+xml</dc:format>
    <dc:creator>
     <cc:Agent>
      <dc:title>Matplotlib v3.10.6, https://matplotlib.org/</dc:title>
     </cc:Agent>
    </dc:creator>
   </cc:Work>
  </rdf:RDF>
 </metadata>
 <defs>
  <style type="text/css">*{stroke-linejoin: round; stroke-linecap: butt}</style>
 </defs>
 <g id="figure_1">
  <g id="patch_1">
   <path d="M 0 324 
L 510.48 324 
L 510.48 0 
L 0 0 
z
" style="fill: #ffffff"/>
  </g>
  <g id="axes_1">
   <g id="patch_2">
    <path d="M 63.81 288.36 
L 459.432 288.36 
L 459.432 38.88 
L 63.81 38.88 
z
" style="fill: #ffffff"/>
   </g>
   <g id="matplotlib.axis_1">
    <g id="xtick_1">
     <g id="line2d_1">
      <defs>
       <path id="ma256935d8b" d="M 0 0 
L 0 3.5 
" style="stroke: #000000; stroke-width: 0.8"/>
      </defs>
      <g>
       <use xlink:href="#ma256935d8b" x="77.900014" y="288.36" style="stroke: #000000; stroke-width: 0.8"/>
      </g>
     </g>
     <g id="text_1">
      <text style="font-size: 10px; font-family: 'Inter 18pt', sans-serif; text-anchor: middle" x="77.900014" y="302.635" transform="rotate(-0 77.900014 302.635)">0</text>
     </g>
    </g>
    <g id="xtick_2">
     <g id="line2d_2">
      <g>
       <use xlink:href="#ma256935d8b" x="136.085634" y="288.36" style="stroke: #000000; stroke-width: 0.8"/>
      </g>
     </g>
     <g id="text_2">
      <text style="font-size: 10px; font-family: 'Inter 18pt', sans-serif; text-anchor: middle" x="136.085634" y="302.635" transform="rotate(-0 136.085634 302.635)">1</text>
     </g>
    </g>
    <g id="xtick_3">
     <g id="line2d_3">
      <g>
       <use xlink:href="#ma256935d8b" x="194.271253" y="288.36" style="stroke: #000000; stroke-width: 0.8"/>
      </g>
     </g>
     <g id="text_3">
      <text style="font-size: 10px; font-family: 'Inter 18pt', sans-serif; text-anchor: middle" x="194.271253" y="302.635" transform="rotate(-0 194.271253 302.635)">2</text>
     </g>
    </g>
    <g id="xtick_4">
     <g id="line2d_4">
      <g>
       <use xlink:href="#ma256935d8b" x="252.456873" y="288.36" style="stroke: #000000; stroke-width: 0.8"/>
      </g>
     </g>
     <g id="text_4">
      <text style="font-size: 10px; font-family: 'Inter 18pt', sans-serif; text-anchor: middle" x="252.456873" y="302.635" transform="rotate(-0 252.456873 302.635)">3</text>
     </g>
    </g>
    <g id="xtick_5">
     <g id="line2d_5">
      <g>
       <use xlink:href="#ma256935d8b" x="310.642492" y="288.36" style="stroke: #000000; stroke-width: 0.8"/>
      </g>
     </g>
     <g id="text_5">
      <text style="font-size: 10px; font-family: 'Inter 18pt', sans-serif; text-anchor: middle" x="310.642492" y="302.635" transform="rotate(-0 310.642492 302.635)">4</text>
     </g>
    </g>
    <g id="xtick_6">
     <g id="line2d_6">
      <g>
       <use xlink:href="#ma256935d8b" x="368.828112" y="288.36" style="stroke: #000000; stroke-width: 0.8"/>
      </g>
     </g>
     <g id="text_6">
      <text style="font-size: 10px; font-family: 'Inter 18pt', sans-serif; text-anchor: middle" x="368.828112" y="302.635" transform="rotate(-0 368.828112 302.635)">5</text>
     </g>
    </g>
    <g id="xtick_7">
     <g id="line2d_7">
      <g>
       <use xlink:href="#ma256935d8b" x="427.013732" y="288.36" style="stroke: #000000; stroke-width: 0.8"/>
      </g>
     </g>
     <g id="text_7">
      <text style="font-size: 10px; font-family: 'Inter 18pt', sans-serif; text-anchor: middle" x="427.013732" y="302.635" transform="rotate(-0 427.013732 302.635)">6</text>
     </g>
    </g>
    <g id="text_8">
     <text style="font-weight: 700; font-size: 7px; font-family: 'Inter 18pt', sans-serif; text-anchor: middle" x="261.621" y="319.997813" transform="rotate(-0 261.621 319.997813)">Euclidean Distance Between Group Means</text>
    </g>
   </g>
   <g id="matplotlib.axis_2">
    <g id="ytick_1">
     <g id="line2d_8">
      <path d="M 63.81 288.36 
L 459.432 288.36 
" clip-path="url(#p50e63f6234)" style="fill: none; stroke-dasharray: 0.8,1.32; stroke-dashoffset: 0; stroke: #b0b0b0; stroke-opacity: 0.5; stroke-width: 0.8"/>
     </g>
     <g id="line2d_9">
      <defs>
       <path id="m97d5c583f9" d="M 0 0 
L -3.5 0 
" style="stroke: #000000; stroke-width: 0.8"/>
      </defs>
      <g>
       <use xlink:href="#m97d5c583f9" x="63.81" y="288.36" style="stroke: #000000; stroke-width: 0.8"/>
      </g>
     </g>
     <g id="text_9">
      <text style="font-size: 10px; font-family: 'Inter 18pt', sans-serif; text-anchor: end" x="56.81" y="291.9975" transform="rotate(-0 56.81 291.9975)">0.0</text>
     </g>
    </g>
    <g id="ytick_2">
     <g id="line2d_10">
      <path d="M 63.81 249.62976 
L 459.432 249.62976 
" clip-path="url(#p50e63f6234)" style="fill: none; stroke-dasharray: 0.8,1.32; stroke-dashoffset: 0; stroke: #b0b0b0; stroke-opacity: 0.5; stroke-width: 0.8"/>
     </g>
     <g id="line2d_11">
      <g>
       <use xlink:href="#m97d5c583f9" x="63.81" y="249.62976" style="stroke: #000000; stroke-width: 0.8"/>
      </g>
     </g>
     <g id="text_10">
      <text style="font-size: 10px; font-family: 'Inter 18pt', sans-serif; text-anchor: end" x="56.81" y="253.26726" transform="rotate(-0 56.81 253.26726)">0.1</text>
     </g>
    </g>
    <g id="ytick_3">
     <g id="line2d_12">
      <path d="M 63.81 210.899519 
L 459.432 210.899519 
" clip-path="url(#p50e63f6234)" style="fill: none; stroke-dasharray: 0.8,1.32; stroke-dashoffset: 0; stroke: #b0b0b0; stroke-opacity: 0.5; stroke-width: 0.8"/>
     </g>
     <g id="line2d_13">
      <g>
       <use xlink:href="#m97d5c583f9" x="63.81" y="210.899519" style="stroke: #000000; stroke-width: 0.8"/>
      </g>
     </g>
     <g id="text_11">
      <text style="font-size: 10px; font-family: 'Inter 18pt', sans-serif; text-anchor: end" x="56.81" y="214.537019" transform="rotate(-0 56.81 214.537019)">0.2</text>
     </g>
    </g>
    <g id="ytick_4">
     <g id="line2d_14">
      <path d="M 63.81 172.169279 
L 459.432 172.169279 
" clip-path="url(#p50e63f6234)" style="fill: none; stroke-dasharray: 0.8,1.32; stroke-dashoffset: 0; stroke: #b0b0b0; stroke-opacity: 0.5; stroke-width: 0.8"/>
     </g>
     <g id="line2d_15">
      <g>
       <use xlink:href="#m97d5c583f9" x="63.81" y="172.169279" style="stroke: #000000; stroke-width: 0.8"/>
      </g>
     </g>
     <g id="text_12">
      <text style="font-size: 10px; font-family: 'Inter 18pt', sans-serif; text-anchor: end" x="56.81" y="175.806779" transform="rotate(-0 56.81 175.806779)">0.3</text>
     </g>
    </g>
    <g id="ytick_5">
     <g id="line2d_16">
      <path d="M 63.81 133.439038 
L 459.432 133.439038 
" clip-path="url(#p50e63f6234)" style="fill: none; stroke-dasharray: 0.8,1.32; stroke-dashoffset: 0; stroke: #b0b0b0; stroke-opacity: 0.5; stroke-width: 0.8"/>
     </g>
     <g id="line2d_17">
      <g>
       <use xlink:href="#m97d5c583f9" x="63.81" y="133.439038" style="stroke: #000000; stroke-width: 0.8"/>
      </g>
     </g>
     <g id="text_13">
      <text style="font-size: 10px; font-family: 'Inter 18pt', sans-serif; text-anchor: end" x="56.81" y="137.076538" transform="rotate(-0 56.81 137.076538)">0.4</text>
     </g>
    </g>
    <g id="ytick_6">
     <g id="line2d_18">
      <path d="M 63.81 94.708798 
L 459.432 94.708798 
" clip-path="url(#p50e63f6234)" style="fill: none; stroke-dasharray: 0.8,1.32; stroke-dashoffset: 0; stroke: #b0b0b0; stroke-opacity: 0.5; stroke-width: 0.8"/>
     </g>
     <g id="line2d_19">
      <g>
       <use xlink:href="#m97d5c583f9" x="63.81" y="94.708798" style="stroke: #000000; stroke-width: 0.8"/>
      </g>
     </g>
     <g id="text_14">
      <text style="font-size: 10px; font-family: 'Inter 18pt', sans-serif; text-anchor: end" x="56.81" y="98.346298" transform="rotate(-0 56.81 98.346298)">0.5</text>
     </g>
    </g>
    <g id="ytick_7">
     <g id="line2d_20">
      <path d="M 63.81 55.978557 
L 459.432 55.978557 
" clip-path="url(#p50e63f6234)" style="fill: none; stroke-dasharray: 0.8,1.32; stroke-dashoffset: 0; stroke: #b0b0b0; stroke-opacity: 0.5; stroke-width: 0.8"/>
     </g>
     <g id="line2d_21">
      <g>
       <use xlink:href="#m97d5c583f9" x="63.81" y="55.978557" style="stroke: #000000; stroke-width: 0.8"/>
      </g>
     </g>
     <g id="text_15">
      <text style="font-size: 10px; font-family: 'Inter 18pt', sans-serif; text-anchor: end" x="56.81" y="59.616057" transform="rotate(-0 56.81 59.616057)">0.6</text>
     </g>
    </g>
    <g id="text_16">
     <text style="font-weight: 700; font-size: 7px; font-family: 'Inter 18pt', sans-serif; text-anchor: middle" x="29.984687" y="163.62" transform="rotate(-90 29.984687 163.62)">Likelihood if Groups Were Identical</text>
    </g>
   </g>
   <g id="patch_3">
    <path d="M 81.792818 288.36 
L 90.784227 288.36 
L 90.784227 202.392911 
L 81.792818 202.392911 
z
" clip-path="url(#p50e63f6234)" style="fill: #21918c; opacity: 0.85; stroke: #ffffff; stroke-linejoin: miter"/>
   </g>
   <g id="patch_4">
    <path d="M 90.784227 288.36 
L 99.775636 288.36 
L 99.775636 114.671392 
L 90.784227 114.671392 
z
" clip-path="url(#p50e63f6234)" style="fill: #21918c; opacity: 0.85; stroke: #ffffff; stroke-linejoin: miter"/>
   </g>
   <g id="patch_5">
    <path d="M 99.775636 288.36 
L 108.767045 288.36 
L 108.767045 115.423291 
L 99.775636 115.423291 
z
" clip-path="url(#p50e63f6234)" style="fill: #21918c; opacity: 0.85; stroke: #ffffff; stroke-linejoin: miter"/>
   </g>
   <g id="patch_6">
    <path d="M 108.767045 288.36 
L 117.758455 288.36 
L 117.758455 171.565063 
L 108.767045 171.565063 
z
" clip-path="url(#p50e63f6234)" style="fill: #21918c; opacity: 0.85; stroke: #ffffff; stroke-linejoin: miter"/>
   </g>
   <g id="patch_7">
    <path d="M 117.758455 288.36 
L 126.749864 288.36 
L 126.749864 223.947342 
L 117.758455 223.947342 
z
" clip-path="url(#p50e63f6234)" style="fill: #21918c; opacity: 0.85; stroke: #ffffff; stroke-linejoin: miter"/>
   </g>
   <g id="patch_8">
    <path d="M 126.749864 288.36 
L 135.741273 288.36 
L 135.741273 235.476456 
L 126.749864 235.476456 
z
" clip-path="url(#p50e63f6234)" style="fill: #21918c; opacity: 0.85; stroke: #ffffff; stroke-linejoin: miter"/>
   </g>
   <g id="patch_9">
    <path d="M 135.741273 288.36 
L 144.732682 288.36 
L 144.732682 205.400506 
L 135.741273 205.400506 
z
" clip-path="url(#p50e63f6234)" style="fill: #21918c; opacity: 0.85; stroke: #ffffff; stroke-linejoin: miter"/>
   </g>
   <g id="patch_10">
    <path d="M 144.732682 288.36 
L 153.724091 288.36 
L 153.724091 141.739747 
L 144.732682 141.739747 
z
" clip-path="url(#p50e63f6234)" style="fill: #21918c; opacity: 0.85; stroke: #ffffff; stroke-linejoin: miter"/>
   </g>
   <g id="patch_11">
    <path d="M 153.724091 288.36 
L 162.7155 288.36 
L 162.7155 146.501772 
L 153.724091 146.501772 
z
" clip-path="url(#p50e63f6234)" style="fill: #21918c; opacity: 0.85; stroke: #ffffff; stroke-linejoin: miter"/>
   </g>
   <g id="patch_12">
    <path d="M 162.7155 288.36 
L 171.706909 288.36 
L 171.706909 108.656203 
L 162.7155 108.656203 
z
" clip-path="url(#p50e63f6234)" style="fill: #21918c; opacity: 0.85; stroke: #ffffff; stroke-linejoin: miter"/>
   </g>
   <g id="patch_13">
    <path d="M 171.706909 288.36 
L 180.698318 288.36 
L 180.698318 50.76 
L 171.706909 50.76 
z
" clip-path="url(#p50e63f6234)" style="fill: #21918c; opacity: 0.85; stroke: #ffffff; stroke-linejoin: miter"/>
   </g>
   <g id="patch_14">
    <path d="M 180.698318 288.36 
L 189.689727 288.36 
L 189.689727 136.476456 
L 180.698318 136.476456 
z
" clip-path="url(#p50e63f6234)" style="fill: #21918c; opacity: 0.85; stroke: #ffffff; stroke-linejoin: miter"/>
   </g>
   <g id="patch_15">
    <path d="M 189.689727 288.36 
L 198.681136 288.36 
L 198.681136 209.661266 
L 189.689727 209.661266 
z
" clip-path="url(#p50e63f6234)" style="fill: #21918c; opacity: 0.85; stroke: #ffffff; stroke-linejoin: miter"/>
   </g>
   <g id="patch_16">
    <path d="M 198.681136 288.36 
L 207.672545 288.36 
L 207.672545 249.261266 
L 198.681136 249.261266 
z
" clip-path="url(#p50e63f6234)" style="fill: #21918c; opacity: 0.85; stroke: #ffffff; stroke-linejoin: miter"/>
   </g>
   <g id="patch_17">
    <path d="M 207.672545 288.36 
L 216.663955 288.36 
L 216.663955 276.32962 
L 207.672545 276.32962 
z
" clip-path="url(#p50e63f6234)" style="fill: #21918c; opacity: 0.85; stroke: #ffffff; stroke-linejoin: miter"/>
   </g>
   <g id="patch_18">
    <path d="M 216.663955 288.36 
L 225.655364 288.36 
L 225.655364 263.296709 
L 216.663955 263.296709 
z
" clip-path="url(#p50e63f6234)" style="fill: #21918c; opacity: 0.85; stroke: #ffffff; stroke-linejoin: miter"/>
   </g>
   <g id="patch_19">
    <path d="M 225.655364 288.36 
L 234.646773 288.36 
L 234.646773 248.008101 
L 225.655364 248.008101 
z
" clip-path="url(#p50e63f6234)" style="fill: #21918c; opacity: 0.85; stroke: #ffffff; stroke-linejoin: miter"/>
   </g>
   <g id="patch_20">
    <path d="M 234.646773 288.36 
L 243.638182 288.36 
L 243.638182 231.215696 
L 234.646773 231.215696 
z
" clip-path="url(#p50e63f6234)" style="fill: #21918c; opacity: 0.85; stroke: #ffffff; stroke-linejoin: miter"/>
   </g>
   <g id="patch_21">
    <path d="M 243.638182 288.36 
L 252.629591 288.36 
L 252.629591 172.316962 
L 243.638182 172.316962 
z
" clip-path="url(#p50e63f6234)" style="fill: #21918c; opacity: 0.85; stroke: #ffffff; stroke-linejoin: miter"/>
   </g>
   <g id="patch_22">
    <path d="M 252.629591 288.36 
L 261.621 288.36 
L 261.621 173.820759 
L 252.629591 173.820759 
z
" clip-path="url(#p50e63f6234)" style="fill: #21918c; opacity: 0.85; stroke: #ffffff; stroke-linejoin: miter"/>
   </g>
   <g id="patch_23">
    <path d="M 261.621 288.36 
L 270.612409 288.36 
L 270.612409 164.797975 
L 261.621 164.797975 
z
" clip-path="url(#p50e63f6234)" style="fill: #21918c; opacity: 0.85; stroke: #ffffff; stroke-linejoin: miter"/>
   </g>
   <g id="patch_24">
    <path d="M 270.612409 288.36 
L 279.603818 288.36 
L 279.603818 226.453671 
L 270.612409 226.453671 
z
" clip-path="url(#p50e63f6234)" style="fill: #21918c; opacity: 0.85; stroke: #ffffff; stroke-linejoin: miter"/>
   </g>
   <g id="patch_25">
    <path d="M 279.603818 288.36 
L 288.595227 288.36 
L 288.595227 254.023291 
L 279.603818 254.023291 
z
" clip-path="url(#p50e63f6234)" style="fill: #21918c; opacity: 0.85; stroke: #ffffff; stroke-linejoin: miter"/>
   </g>
   <g id="patch_26">
    <path d="M 288.595227 288.36 
L 297.586636 288.36 
L 297.586636 285.101772 
L 288.595227 285.101772 
z
" clip-path="url(#p50e63f6234)" style="fill: #21918c; opacity: 0.85; stroke: #ffffff; stroke-linejoin: miter"/>
   </g>
   <g id="patch_27">
    <path d="M 297.586636 288.36 
L 306.578045 288.36 
L 306.578045 288.36 
L 297.586636 288.36 
z
" clip-path="url(#p50e63f6234)" style="fill: #21918c; opacity: 0.85; stroke: #ffffff; stroke-linejoin: miter"/>
   </g>
   <g id="patch_28">
    <path d="M 306.578045 288.36 
L 315.569455 288.36 
L 315.569455 283.848608 
L 306.578045 283.848608 
z
" clip-path="url(#p50e63f6234)" style="fill: #21918c; opacity: 0.85; stroke: #ffffff; stroke-linejoin: miter"/>
   </g>
   <g id="patch_29">
    <path d="M 315.569455 288.36 
L 324.560864 288.36 
L 324.560864 275.327089 
L 315.569455 275.327089 
z
" clip-path="url(#p50e63f6234)" style="fill: #21918c; opacity: 0.85; stroke: #ffffff; stroke-linejoin: miter"/>
   </g>
   <g id="patch_30">
    <path d="M 324.560864 288.36 
L 333.552273 288.36 
L 333.552273 275.327089 
L 324.560864 275.327089 
z
" clip-path="url(#p50e63f6234)" style="fill: #21918c; opacity: 0.85; stroke: #ffffff; stroke-linejoin: miter"/>
   </g>
   <g id="patch_31">
    <path d="M 333.552273 288.36 
L 342.543682 288.36 
L 342.543682 247.256203 
L 333.552273 247.256203 
z
" clip-path="url(#p50e63f6234)" style="fill: #21918c; opacity: 0.85; stroke: #ffffff; stroke-linejoin: miter"/>
   </g>
   <g id="patch_32">
    <path d="M 342.543682 288.36 
L 351.535091 288.36 
L 351.535091 248.008101 
L 342.543682 248.008101 
z
" clip-path="url(#p50e63f6234)" style="fill: #21918c; opacity: 0.85; stroke: #ffffff; stroke-linejoin: miter"/>
   </g>
   <g id="patch_33">
    <path d="M 351.535091 288.36 
L 360.5265 288.36 
L 360.5265 242.74481 
L 351.535091 242.74481 
z
" clip-path="url(#p50e63f6234)" style="fill: #21918c; opacity: 0.85; stroke: #ffffff; stroke-linejoin: miter"/>
   </g>
   <g id="patch_34">
    <path d="M 360.5265 288.36 
L 369.517909 288.36 
L 369.517909 278.835949 
L 360.5265 278.835949 
z
" clip-path="url(#p50e63f6234)" style="fill: #21918c; opacity: 0.85; stroke: #ffffff; stroke-linejoin: miter"/>
   </g>
   <g id="patch_35">
    <path d="M 369.517909 288.36 
L 378.509318 288.36 
L 378.509318 288.36 
L 369.517909 288.36 
z
" clip-path="url(#p50e63f6234)" style="fill: #21918c; opacity: 0.85; stroke: #ffffff; stroke-linejoin: miter"/>
   </g>
   <g id="patch_36">
    <path d="M 378.509318 288.36 
L 387.500727 288.36 
L 387.500727 288.36 
L 378.509318 288.36 
z
" clip-path="url(#p50e63f6234)" style="fill: #21918c; opacity: 0.85; stroke: #ffffff; stroke-linejoin: miter"/>
   </g>
   <g id="patch_37">
    <path d="M 387.500727 288.36 
L 396.492136 288.36 
L 396.492136 288.36 
L 387.500727 288.36 
z
" clip-path="url(#p50e63f6234)" style="fill: #21918c; opacity: 0.85; stroke: #ffffff; stroke-linejoin: miter"/>
   </g>
   <g id="patch_38">
    <path d="M 396.492136 288.36 
L 405.483545 288.36 
L 405.483545 288.36 
L 396.492136 288.36 
z
" clip-path="url(#p50e63f6234)" style="fill: #21918c; opacity: 0.85; stroke: #ffffff; stroke-linejoin: miter"/>
   </g>
   <g id="patch_39">
    <path d="M 405.483545 288.36 
L 414.474955 288.36 
L 414.474955 288.36 
L 405.483545 288.36 
z
" clip-path="url(#p50e63f6234)" style="fill: #21918c; opacity: 0.85; stroke: #ffffff; stroke-linejoin: miter"/>
   </g>
   <g id="patch_40">
    <path d="M 414.474955 288.36 
L 423.466364 288.36 
L 423.466364 286.60557 
L 414.474955 286.60557 
z
" clip-path="url(#p50e63f6234)" style="fill: #21918c; opacity: 0.85; stroke: #ffffff; stroke-linejoin: miter"/>
   </g>
   <g id="patch_41">
    <path d="M 423.466364 288.36 
L 432.457773 288.36 
L 432.457773 276.32962 
L 423.466364 276.32962 
z
" clip-path="url(#p50e63f6234)" style="fill: #21918c; opacity: 0.85; stroke: #ffffff; stroke-linejoin: miter"/>
   </g>
   <g id="patch_42">
    <path d="M 432.457773 288.36 
L 441.449182 288.36 
L 441.449182 276.32962 
L 432.457773 276.32962 
z
" clip-path="url(#p50e63f6234)" style="fill: #21918c; opacity: 0.85; stroke: #ffffff; stroke-linejoin: miter"/>
   </g>
   <g id="patch_43">
    <path d="M 63.81 288.36 
L 63.81 38.88 
" style="fill: none; stroke: #000000; stroke-width: 0.8; stroke-linejoin: miter; stroke-linecap: square"/>
   </g>
   <g id="patch_44">
    <path d="M 63.81 288.36 
L 459.432 288.36 
" style="fill: none; stroke: #000000; stroke-width: 0.8; stroke-linejoin: miter; stroke-linecap: square"/>
   </g>
   <g id="line2d_22">
    <path d="M 327.125526 288.36 
L 327.125526 38.88 
" clip-path="url(#p50e63f6234)" style="fill: none; stroke-dasharray: 7.4,3.2; stroke-dashoffset: 0; stroke: #440154; stroke-width: 2"/>
   </g>
   <g id="text_17">
    <text style="font-weight: 700; font-size: 9px; font-family: 'Inter 18pt', sans-serif; text-anchor: middle; fill: #333333" x="261.621" y="23.88" transform="rotate(-0 261.621 23.88)">Permutation Test: Control vs. Defeat</text>
   </g>
   <g id="legend_1">
    <g id="patch_45">
     <path d="M 364.222156 64.521875 
L 454.532 64.521875 
Q 455.932 64.521875 455.932 63.121875 
L 455.932 43.78 
Q 455.932 42.38 454.532 42.38 
L 364.222156 42.38 
Q 362.822156 42.38 362.822156 43.78 
L 362.822156 63.121875 
Q 362.822156 64.521875 364.222156 64.521875 
z
" style="fill: #ffffff; opacity: 0.9; stroke: #cccccc; stroke-linejoin: miter"/>
    </g>
    <g id="patch_46">
     <path d="M 365.622156 50.2725 
L 379.622156 50.2725 
L 379.622156 45.3725 
L 365.622156 45.3725 
z
" style="fill: #21918c; opacity: 0.85; stroke: #ffffff; stroke-linejoin: miter"/>
    </g>
    <g id="text_18">
     <text style="font-size: 7px; font-family: 'Inter 18pt', sans-serif; text-anchor: start" x="385.222156" y="50.2725" transform="rotate(-0 385.222156 50.2725)">Null Distribution</text>
    </g>
    <g id="line2d_23">
     <path d="M 365.622156 57.843437 
L 372.622156 57.843437 
L 379.622156 57.843437 
" style="fill: none; stroke-dasharray: 7.4,3.2; stroke-dashoffset: 0; stroke: #440154; stroke-width: 2"/>
    </g>
    <g id="text_19">
     <text style="font-size: 7px; font-family: 'Inter 18pt', sans-serif; text-anchor: start" x="385.222156" y="60.293437" transform="rotate(-0 385.222156 60.293437)">Observed Difference</text>
    </g>
   </g>
  </g>
 </g>
 <defs>
  <clipPath id="p50e63f6234">
   <rect x="63.81" y="38.88" width="395.622" height="249.48"/>
  </clipPath>
 </defs>
</svg>
