<?xml version="1.0" encoding="utf-8" standalone="no"?>
<!DOCTYPE svg PUBLIC "-//W3C//DTD SVG 1.1//EN"
  "http://www.w3.org/Graphics/SVG/1.1/DTD/svg11.dtd">
<svg xmlns:xlink="http://www.w3.org/1999/xlink" width="1016.743281pt" height="457.045937pt" viewBox="0 0 1016.743281 457.045937" xmlns="http://www.w3.org/2000/svg" version="1.1">
 <metadata>
  <rdf:RDF xmlns:dc="http://purl.org/dc/elements/1.1/" xmlns:cc="http://creativecommons.org/ns#" xmlns:rdf="http://www.w3.org/1999/02/22-rdf-syntax-ns#">
   <cc:Work>
    <dc:type rdf:resource="http://purl.org/dc/dcmitype/StillImage"/>
    <dc:date>2026-01-18T13:58:46.755998</dc:date>
    <dc:format>image/svg+xml</dc:format>
    <dc:creator>
     <cc:Agent>
      <dc:title>Matplotlib v3.10.6, https://matplotlib.org/</dc:title>
     </cc:Agent>
    </dc:creator>
   </cc:Work>
  </rdf:RDF>
 </metadata>
 <defs>
  <style type="text/css">*{stroke-linejoin: round; stroke-linecap: butt}</style>
 </defs>
 <g id="figure_1">
  <g id="patch_1">
   <path d="M 0 457.045937 
L 1016.743281 457.045937 
L 1016.743281 0 
L 0 0 
z
" style="fill: #ffffff"/>
  </g>
  <g id="axes_1">
   <g id="patch_2">
    <path d="M 398.379062 265.8 
C 398.379062 244.867784 394.255872 224.139107 386.24546 204.800261 
C 378.235048 185.461415 366.493195 167.888491 351.691883 153.087179 
C 336.890571 138.285867 319.317648 126.544015 299.978802 118.533603 
C 280.639955 110.52319 259.911279 106.4 238.979062 106.4 
C 218.046846 106.4 197.31817 110.52319 177.979323 118.533603 
C 158.640477 126.544015 141.067554 138.285867 126.266242 153.087179 
C 111.46493 167.888491 99.723077 185.461415 91.712665 204.800261 
C 83.702253 224.139107 79.579063 244.867784 79.579063 265.8 
C 79.579063 286.732216 83.702253 307.460893 91.712665 326.799739 
C 99.723077 346.138585 111.46493 363.711509 126.266242 378.512821 
C 141.067554 393.314133 158.640477 405.055985 177.979323 413.066397 
C 197.31817 421.07681 218.046846 425.2 238.979062 425.2 
C 259.911279 425.2 280.639955 421.07681 299.978802 413.066397 
C 319.317648 405.055985 336.890571 393.314133 351.691883 378.512821 
C 366.493195 363.711509 378.235048 346.138585 386.24546 326.799739 
C 394.255872 307.460893 398.379062 286.732216 398.379062 265.8 
M 238.979062 265.8 
C 238.979062 265.8 238.979062 265.8 238.979062 265.8 
C 238.979062 265.8 238.979062 265.8 238.979062 265.8 
C 238.979062 265.8 238.979062 265.8 238.979062 265.8 
C 238.979062 265.8 238.979062 265.8 238.979062 265.8 
C 238.979062 265.8 238.979062 265.8 238.979062 265.8 
C 238.979062 265.8 238.979062 265.8 238.979062 265.8 
C 238.979062 265.8 238.979062 265.8 238.979062 265.8 
C 238.979062 265.8 238.979062 265.8 238.979062 265.8 
C 238.979062 265.8 238.979062 265.8 238.979062 265.8 
C 238.979062 265.8 238.979062 265.8 238.979062 265.8 
C 238.979062 265.8 238.979062 265.8 238.979062 265.8 
C 238.979062 265.8 238.979062 265.8 238.979062 265.8 
C 238.979062 265.8 238.979062 265.8 238.979062 265.8 
C 238.979062 265.8 238.979062 265.8 238.979062 265.8 
C 238.979062 265.8 238.979062 265.8 238.979062 265.8 
C 238.979062 265.8 238.979062 265.8 238.979062 265.8 
z
" style="fill: #ffffff"/>
   </g>
   <g id="patch_3">
    <path d="M 238.979062 135.934605 
L 246.111054 265.8 
L 238.979062 277.119261 
L 93.654957 265.8 
z
" clip-path="url(#peace0c9dd9)" style="fill: #440154; opacity: 0.1; stroke: #440154; stroke-linejoin: miter"/>
   </g>
   <g id="matplotlib.axis_1">
    <g id="xtick_1">
     <g id="line2d_1">
      <path d="M 238.979062 265.8 
L 238.979062 106.4 
" clip-path="url(#peace0c9dd9)" style="fill: none; stroke: #b0b0b0; stroke-width: 0.8; stroke-linecap: square"/>
     </g>
     <g id="text_1">
      <text style="font-size: 11px; font-family: 'DejaVu Sans', 'Bitstream Vera Sans', 'Computer Modern Sans Serif', 'Lucida Grande', 'Verdana', 'Geneva', 'Lucid', 'Arial', 'Helvetica', 'Avant Garde', sans-serif; text-anchor: middle" x="238.979062" y="90.112344" transform="rotate(-0 238.979062 90.112344)">Shelter</text>
     </g>
    </g>
    <g id="xtick_2">
     <g id="line2d_2">
      <path d="M 238.979062 265.8 
L 398.379062 265.8 
" clip-path="url(#peace0c9dd9)" style="fill: none; stroke: #b0b0b0; stroke-width: 0.8; stroke-linecap: square"/>
     </g>
     <g id="text_2">
      <text style="font-size: 11px; font-family: 'DejaVu Sans', 'Bitstream Vera Sans', 'Computer Modern Sans Serif', 'Lucida Grande', 'Verdana', 'Geneva', 'Lucid', 'Arial', 'Helvetica', 'Avant Garde', sans-serif; text-anchor: start" x="412.379062" y="268.835312" transform="rotate(-0 412.379062 268.835312)">Exploration</text>
     </g>
    </g>
    <g id="xtick_3">
     <g id="line2d_3">
      <path d="M 238.979062 265.8 
L 238.979062 425.2 
" clip-path="url(#peace0c9dd9)" style="fill: none; stroke: #b0b0b0; stroke-width: 0.8; stroke-linecap: square"/>
     </g>
     <g id="text_3">
      <text style="font-size: 11px; font-family: 'DejaVu Sans', 'Bitstream Vera Sans', 'Computer Modern Sans Serif', 'Lucida Grande', 'Verdana', 'Geneva', 'Lucid', 'Arial', 'Helvetica', 'Avant Garde', sans-serif; text-anchor: middle" x="238.979062" y="447.558281" transform="rotate(-0 238.979062 447.558281)">Investigation</text>
     </g>
    </g>
    <g id="xtick_4">
     <g id="line2d_4">
      <path d="M 238.979062 265.8 
L 79.579063 265.8 
" clip-path="url(#peace0c9dd9)" style="fill: none; stroke: #b0b0b0; stroke-width: 0.8; stroke-linecap: square"/>
     </g>
     <g id="text_4">
      <text style="font-size: 11px; font-family: 'DejaVu Sans', 'Bitstream Vera Sans', 'Computer Modern Sans Serif', 'Lucida Grande', 'Verdana', 'Geneva', 'Lucid', 'Arial', 'Helvetica', 'Avant Garde', sans-serif; text-anchor: end" x="65.579063" y="268.835312" transform="rotate(-0 65.579063 268.835312)">Immobility</text>
     </g>
    </g>
   </g>
   <g id="matplotlib.axis_2">
    <g id="ytick_1">
     <g id="line2d_5">
      <path d="M 238.979062 233.92 
C 243.165506 233.92 247.311241 234.744638 251.17901 236.346721 
C 255.04678 237.948803 258.561364 240.297173 261.521627 243.257436 
C 264.481889 246.217698 266.83026 249.732283 268.432342 253.600052 
C 270.034424 257.467821 270.859062 261.613557 270.859062 265.8 
C 270.859062 269.986443 270.034424 274.132179 268.432342 277.999948 
C 266.83026 281.867717 264.481889 285.382302 261.521627 288.342564 
C 258.561364 291.302827 255.04678 293.651197 251.17901 295.253279 
C 247.311241 296.855362 243.165506 297.68 238.979062 297.68 
C 234.792619 297.68 230.646884 296.855362 226.779115 295.253279 
C 222.911345 293.651197 219.396761 291.302827 216.436498 288.342564 
C 213.476236 285.382302 211.127865 281.867717 209.525783 277.999948 
C 207.923701 274.132179 207.099063 269.986443 207.099063 265.8 
C 207.099063 261.613557 207.923701 257.467821 209.525783 253.600052 
C 211.127865 249.732283 213.476236 246.217698 216.436498 243.257436 
C 219.396761 240.297173 222.911345 237.948803 226.779115 236.346721 
C 230.646884 234.744638 234.792619 233.92 238.979062 233.92 
" clip-path="url(#peace0c9dd9)" style="fill: none; stroke: #b0b0b0; stroke-width: 0.8; stroke-linecap: square"/>
     </g>
     <g id="text_5">
      <text style="font-size: 10px; font-family: 'DejaVu Sans', 'Bitstream Vera Sans', 'Computer Modern Sans Serif', 'Lucida Grande', 'Verdana', 'Geneva', 'Lucid', 'Arial', 'Helvetica', 'Avant Garde', sans-serif; text-anchor: start" x="251.17901" y="234.267033" transform="rotate(-0 251.17901 234.267033)">0.2</text>
     </g>
    </g>
    <g id="ytick_2">
     <g id="line2d_6">
      <path d="M 238.979062 202.04 
C 247.351949 202.04 255.64342 203.689276 263.378958 206.893441 
C 271.114497 210.097606 278.143666 214.794347 284.064191 220.714872 
C 289.984716 226.635396 294.681457 233.664566 297.885621 241.400104 
C 301.089786 249.135643 302.739062 257.427114 302.739062 265.8 
C 302.739062 274.172886 301.089786 282.464357 297.885621 290.199896 
C 294.681457 297.935434 289.984716 304.964604 284.064191 310.885128 
C 278.143666 316.805653 271.114497 321.502394 263.378958 324.706559 
C 255.64342 327.910724 247.351949 329.56 238.979062 329.56 
C 230.606176 329.56 222.314705 327.910724 214.579167 324.706559 
C 206.843628 321.502394 199.814459 316.805653 193.893934 310.885128 
C 187.973409 304.964604 183.276668 297.935434 180.072504 290.199896 
C 176.868339 282.464357 175.219063 274.172886 175.219063 265.8 
C 175.219063 257.427114 176.868339 249.135643 180.072504 241.400104 
C 183.276668 233.664566 187.973409 226.635396 193.893934 220.714872 
C 199.814459 214.794347 206.843628 210.097606 214.579167 206.893441 
C 222.314705 203.689276 230.606176 202.04 238.979062 202.04 
" clip-path="url(#peace0c9dd9)" style="fill: none; stroke: #b0b0b0; stroke-width: 0.8; stroke-linecap: square"/>
     </g>
     <g id="text_6">
      <text style="font-size: 10px; font-family: 'DejaVu Sans', 'Bitstream Vera Sans', 'Computer Modern Sans Serif', 'Lucida Grande', 'Verdana', 'Geneva', 'Lucid', 'Arial', 'Helvetica', 'Avant Garde', sans-serif; text-anchor: start" x="263.378958" y="204.813754" transform="rotate(-0 263.378958 204.813754)">0.4</text>
     </g>
    </g>
    <g id="ytick_3">
     <g id="line2d_7">
      <path d="M 238.979062 170.16 
C 251.538392 170.16 263.975598 172.633914 275.578906 177.440162 
C 287.182214 182.246409 297.725968 189.29152 306.606755 198.172307 
C 315.487542 207.053095 322.532654 217.596849 327.338901 229.200157 
C 332.145148 240.803464 334.619062 253.24067 334.619062 265.8 
C 334.619062 278.35933 332.145148 290.796536 327.338901 302.399843 
C 322.532654 314.003151 315.487542 324.546905 306.606755 333.427693 
C 297.725968 342.30848 287.182214 349.353591 275.578906 354.159838 
C 263.975598 358.966086 251.538392 361.44 238.979062 361.44 
C 226.419733 361.44 213.982527 358.966086 202.379219 354.159838 
C 190.775911 349.353591 180.232157 342.30848 171.35137 333.427693 
C 162.470583 324.546905 155.425471 314.003151 150.619224 302.399843 
C 145.812977 290.796536 143.339063 278.35933 143.339063 265.8 
C 143.339063 253.24067 145.812977 240.803464 150.619224 229.200157 
C 155.425471 217.596849 162.470583 207.053095 171.35137 198.172307 
C 180.232157 189.29152 190.775911 182.246409 202.379219 177.440162 
C 213.982527 172.633914 226.419733 170.16 238.979062 170.16 
" clip-path="url(#peace0c9dd9)" style="fill: none; stroke: #b0b0b0; stroke-width: 0.8; stroke-linecap: square"/>
     </g>
     <g id="text_7">
      <text style="font-size: 10px; font-family: 'DejaVu Sans', 'Bitstream Vera Sans', 'Computer Modern Sans Serif', 'Lucida Grande', 'Verdana', 'Geneva', 'Lucid', 'Arial', 'Helvetica', 'Avant Garde', sans-serif; text-anchor: start" x="275.578906" y="175.360474" transform="rotate(-0 275.578906 175.360474)">0.6</text>
     </g>
    </g>
    <g id="ytick_4">
     <g id="line2d_8">
      <path d="M 238.979062 138.28 
C 255.724835 138.28 272.307777 141.578552 287.778854 147.986882 
C 303.249931 154.395212 317.30827 163.788694 329.149319 175.629743 
C 340.990369 187.470793 350.383851 201.529132 356.79218 217.000209 
C 363.20051 232.471286 366.499062 249.054227 366.499062 265.8 
C 366.499062 282.545773 363.20051 299.128714 356.79218 314.599791 
C 350.383851 330.070868 340.990369 344.129207 329.149319 355.970257 
C 317.30827 367.811306 303.249931 377.204788 287.778854 383.613118 
C 272.307777 390.021448 255.724835 393.32 238.979062 393.32 
C 222.23329 393.32 205.650348 390.021448 190.179271 383.613118 
C 174.708194 377.204788 160.649855 367.811306 148.808806 355.970257 
C 136.967756 344.129207 127.574274 330.070868 121.165945 314.599791 
C 114.757615 299.128714 111.459063 282.545773 111.459063 265.8 
C 111.459063 249.054227 114.757615 232.471286 121.165945 217.000209 
C 127.574274 201.529132 136.967756 187.470793 148.808806 175.629743 
C 160.649855 163.788694 174.708194 154.395212 190.179271 147.986882 
C 205.650348 141.578552 222.23329 138.28 238.979062 138.28 
" clip-path="url(#peace0c9dd9)" style="fill: none; stroke: #b0b0b0; stroke-width: 0.8; stroke-linecap: square"/>
     </g>
     <g id="text_8">
      <text style="font-size: 10px; font-family: 'DejaVu Sans', 'Bitstream Vera Sans', 'Computer Modern Sans Serif', 'Lucida Grande', 'Verdana', 'Geneva', 'Lucid', 'Arial', 'Helvetica', 'Avant Garde', sans-serif; text-anchor: start" x="287.778854" y="145.907195" transform="rotate(-0 287.778854 145.907195)">0.8</text>
     </g>
    </g>
    <g id="ytick_5">
     <g id="line2d_9">
      <path d="M 238.979062 106.4 
C 259.911279 106.4 280.639955 110.52319 299.978802 118.533603 
C 319.317648 126.544015 336.890571 138.285867 351.691883 153.087179 
C 366.493195 167.888491 378.235048 185.461415 386.24546 204.800261 
C 394.255872 224.139107 398.379062 244.867784 398.379062 265.8 
C 398.379062 286.732216 394.255872 307.460893 386.24546 326.799739 
C 378.235048 346.138585 366.493195 363.711509 351.691883 378.512821 
C 336.890571 393.314133 319.317648 405.055985 299.978802 413.066397 
C 280.639955 421.07681 259.911279 425.2 238.979062 425.2 
C 218.046846 425.2 197.31817 421.07681 177.979323 413.066397 
C 158.640477 405.055985 141.067554 393.314133 126.266242 378.512821 
C 111.46493 363.711509 99.723077 346.138585 91.712665 326.799739 
C 83.702253 307.460893 79.579063 286.732216 79.579063 265.8 
C 79.579063 244.867784 83.702253 224.139107 91.712665 204.800261 
C 99.723077 185.461415 111.46493 167.888491 126.266242 153.087179 
C 141.067554 138.285867 158.640477 126.544015 177.979323 118.533603 
C 197.31817 110.52319 218.046846 106.4 238.979062 106.4 
" clip-path="url(#peace0c9dd9)" style="fill: none; stroke: #b0b0b0; stroke-width: 0.8; stroke-linecap: square"/>
     </g>
     <g id="text_9">
      <text style="font-size: 10px; font-family: 'DejaVu Sans', 'Bitstream Vera Sans', 'Computer Modern Sans Serif', 'Lucida Grande', 'Verdana', 'Geneva', 'Lucid', 'Arial', 'Helvetica', 'Avant Garde', sans-serif; text-anchor: start" x="299.978802" y="116.453915" transform="rotate(-0 299.978802 116.453915)">1.0</text>
     </g>
    </g>
   </g>
   <g id="line2d_10">
    <path d="M 238.979062 135.934605 
L 246.111054 265.8 
L 238.979062 277.119261 
L 93.654957 265.8 
L 238.979062 135.934605 
" clip-path="url(#peace0c9dd9)" style="fill: none; stroke: #440154; stroke-width: 2.5; stroke-linecap: square"/>
   </g>
   <g id="line2d_11">
    <path d="M 238.979062 139.409264 
L 243.733723 265.8 
L 238.979062 281.92607 
L 110.01343 265.8 
L 238.979062 139.409264 
" clip-path="url(#peace0c9dd9)" style="fill: none; stroke-dasharray: 7.4,3.2; stroke-dashoffset: 0; stroke: #21918c; stroke-width: 2"/>
   </g>
   <g id="patch_4">
    <path d="M 238.979062 106.4 
C 218.046846 106.4 197.31817 110.52319 177.979323 118.533603 
C 158.640477 126.544015 141.067554 138.285867 126.266242 153.087179 
C 111.46493 167.888491 99.723077 185.461415 91.712665 204.800261 
C 83.702253 224.139107 79.579063 244.867784 79.579063 265.8 
C 79.579063 286.732216 83.702253 307.460893 91.712665 326.799739 
C 99.723077 346.138585 111.46493 363.711509 126.266242 378.512821 
C 141.067554 393.314133 158.640477 405.055985 177.979323 413.066397 
C 197.31817 421.07681 218.046846 425.2 238.979062 425.2 
C 259.911279 425.2 280.639955 421.07681 299.978802 413.066397 
C 319.317648 405.055985 336.890571 393.314133 351.691883 378.512821 
C 366.493195 363.711509 378.235048 346.138585 386.24546 326.799739 
C 394.255872 307.460893 398.379062 286.732216 398.379062 265.8 
C 398.379062 244.867784 394.255872 224.139107 386.24546 204.800261 
C 378.235048 185.461415 366.493195 167.888491 351.691883 153.087179 
C 336.890571 138.285867 319.317648 126.544015 299.978802 118.533603 
C 280.639955 110.52319 259.911279 106.4 238.979062 106.4 
" style="fill: none; stroke: #000000; stroke-width: 0.8; stroke-linejoin: miter; stroke-linecap: square"/>
   </g>
   <g id="text_10">
    <text style="font-weight: 700; font-size: 14px; font-family: 'DejaVu Sans', 'Bitstream Vera Sans', 'Computer Modern Sans Serif', 'Lucida Grande', 'Verdana', 'Geneva', 'Lucid', 'Arial', 'Helvetica', 'Avant Garde', sans-serif; text-anchor: middle" x="238.979062" y="75.754062" transform="rotate(-0 238.979062 75.754062)">Anxious</text>
   </g>
   <g id="legend_1">
    <g id="patch_5">
     <path d="M 42.4325 430.67625 
L 104.459063 430.67625 
Q 106.459063 430.67625 106.459063 428.67625 
L 106.459063 400.32 
Q 106.459063 398.32 104.459063 398.32 
L 42.4325 398.32 
Q 40.4325 398.32 40.4325 400.32 
L 40.4325 428.67625 
Q 40.4325 430.67625 42.4325 430.67625 
z
" style="fill: #ffffff; opacity: 0.8; stroke: #cccccc; stroke-linejoin: miter"/>
    </g>
    <g id="line2d_12">
     <path d="M 44.4325 406.418437 
L 54.4325 406.418437 
L 64.4325 406.418437 
" style="fill: none; stroke: #440154; stroke-width: 2.5; stroke-linecap: square"/>
    </g>
    <g id="text_11">
     <text style="font-size: 10px; font-family: 'DejaVu Sans', 'Bitstream Vera Sans', 'Computer Modern Sans Serif', 'Lucida Grande', 'Verdana', 'Geneva', 'Lucid', 'Arial', 'Helvetica', 'Avant Garde', sans-serif; text-anchor: start" x="72.4325" y="409.918437" transform="rotate(-0 72.4325 409.918437)">Real</text>
    </g>
    <g id="line2d_13">
     <path d="M 44.4325 421.096563 
L 54.4325 421.096563 
L 64.4325 421.096563 
" style="fill: none; stroke-dasharray: 7.4,3.2; stroke-dashoffset: 0; stroke: #21918c; stroke-width: 2"/>
    </g>
    <g id="text_12">
     <text style="font-size: 10px; font-family: 'DejaVu Sans', 'Bitstream Vera Sans', 'Computer Modern Sans Serif', 'Lucida Grande', 'Verdana', 'Geneva', 'Lucid', 'Arial', 'Helvetica', 'Avant Garde', sans-serif; text-anchor: start" x="72.4325" y="424.596563" transform="rotate(-0 72.4325 424.596563)">Model</text>
    </g>
   </g>
  </g>
  <g id="axes_2">
   <g id="patch_6">
    <path d="M 932.979062 265.8 
C 932.979062 244.867784 928.855872 224.139107 920.84546 204.800261 
C 912.835048 185.461415 901.093195 167.888491 886.291883 153.087179 
C 871.490571 138.285867 853.917648 126.544015 834.578802 118.533603 
C 815.239955 110.52319 794.511279 106.4 773.579062 106.4 
C 752.646846 106.4 731.91817 110.52319 712.579323 118.533603 
C 693.240477 126.544015 675.667554 138.285867 660.866242 153.087179 
C 646.06493 167.888491 634.323077 185.461415 626.312665 204.800261 
C 618.302253 224.139107 614.179062 244.867784 614.179062 265.8 
C 614.179062 286.732216 618.302253 307.460893 626.312665 326.799739 
C 634.323077 346.138585 646.06493 363.711509 660.866242 378.512821 
C 675.667554 393.314133 693.240477 405.055985 712.579323 413.066397 
C 731.91817 421.07681 752.646846 425.2 773.579062 425.2 
C 794.511279 425.2 815.239955 421.07681 834.578802 413.066397 
C 853.917648 405.055985 871.490571 393.314133 886.291883 378.512821 
C 901.093195 363.711509 912.835048 346.138585 920.84546 326.799739 
C 928.855872 307.460893 932.979062 286.732216 932.979062 265.8 
M 773.579062 265.8 
C 773.579062 265.8 773.579062 265.8 773.579062 265.8 
C 773.579062 265.8 773.579062 265.8 773.579062 265.8 
C 773.579062 265.8 773.579062 265.8 773.579062 265.8 
C 773.579062 265.8 773.579062 265.8 773.579062 265.8 
C 773.579062 265.8 773.579062 265.8 773.579062 265.8 
C 773.579062 265.8 773.579062 265.8 773.579062 265.8 
C 773.579062 265.8 773.579062 265.8 773.579062 265.8 
C 773.579062 265.8 773.579062 265.8 773.579062 265.8 
C 773.579062 265.8 773.579062 265.8 773.579062 265.8 
C 773.579062 265.8 773.579062 265.8 773.579062 265.8 
C 773.579062 265.8 773.579062 265.8 773.579062 265.8 
C 773.579062 265.8 773.579062 265.8 773.579062 265.8 
C 773.579062 265.8 773.579062 265.8 773.579062 265.8 
C 773.579062 265.8 773.579062 265.8 773.579062 265.8 
C 773.579062 265.8 773.579062 265.8 773.579062 265.8 
C 773.579062 265.8 773.579062 265.8 773.579062 265.8 
z
" style="fill: #ffffff"/>
   </g>
   <g id="patch_7">
    <path d="M 773.579062 233.007902 
L 871.049607 265.8 
L 773.579062 400.390661 
L 709.666891 265.8 
z
" clip-path="url(#p3843ee9997)" style="fill: #440154; opacity: 0.1; stroke: #440154; stroke-linejoin: miter"/>
   </g>
   <g id="matplotlib.axis_3">
    <g id="xtick_5">
     <g id="line2d_14">
      <path d="M 773.579062 265.8 
L 773.579062 106.4 
" clip-path="url(#p3843ee9997)" style="fill: none; stroke: #b0b0b0; stroke-width: 0.8; stroke-linecap: square"/>
     </g>
     <g id="text_13">
      <text style="font-size: 11px; font-family: 'DejaVu Sans', 'Bitstream Vera Sans', 'Computer Modern Sans Serif', 'Lucida Grande', 'Verdana', 'Geneva', 'Lucid', 'Arial', 'Helvetica', 'Avant Garde', sans-serif; text-anchor: middle" x="773.579062" y="90.112344" transform="rotate(-0 773.579062 90.112344)">Shelter</text>
     </g>
    </g>
    <g id="xtick_6">
     <g id="line2d_15">
      <path d="M 773.579062 265.8 
L 932.979062 265.8 
" clip-path="url(#p3843ee9997)" style="fill: none; stroke: #b0b0b0; stroke-width: 0.8; stroke-linecap: square"/>
     </g>
     <g id="text_14">
      <text style="font-size: 11px; font-family: 'DejaVu Sans', 'Bitstream Vera Sans', 'Computer Modern Sans Serif', 'Lucida Grande', 'Verdana', 'Geneva', 'Lucid', 'Arial', 'Helvetica', 'Avant Garde', sans-serif; text-anchor: start" x="946.979062" y="268.835312" transform="rotate(-0 946.979062 268.835312)">Exploration</text>
     </g>
    </g>
    <g id="xtick_7">
     <g id="line2d_16">
      <path d="M 773.579062 265.8 
L 773.579062 425.2 
" clip-path="url(#p3843ee9997)" style="fill: none; stroke: #b0b0b0; stroke-width: 0.8; stroke-linecap: square"/>
     </g>
     <g id="text_15">
      <text style="font-size: 11px; font-family: 'DejaVu Sans', 'Bitstream Vera Sans', 'Computer Modern Sans Serif', 'Lucida Grande', 'Verdana', 'Geneva', 'Lucid', 'Arial', 'Helvetica', 'Avant Garde', sans-serif; text-anchor: middle" x="773.579062" y="447.558281" transform="rotate(-0 773.579062 447.558281)">Investigation</text>
     </g>
    </g>
    <g id="xtick_8">
     <g id="line2d_17">
      <path d="M 773.579062 265.8 
L 614.179062 265.8 
" clip-path="url(#p3843ee9997)" style="fill: none; stroke: #b0b0b0; stroke-width: 0.8; stroke-linecap: square"/>
     </g>
     <g id="text_16">
      <text style="font-size: 11px; font-family: 'DejaVu Sans', 'Bitstream Vera Sans', 'Computer Modern Sans Serif', 'Lucida Grande', 'Verdana', 'Geneva', 'Lucid', 'Arial', 'Helvetica', 'Avant Garde', sans-serif; text-anchor: end" x="600.179062" y="268.835312" transform="rotate(-0 600.179062 268.835312)">Immobility</text>
     </g>
    </g>
   </g>
   <g id="matplotlib.axis_4">
    <g id="ytick_6">
     <g id="line2d_18">
      <path d="M 773.579062 233.92 
C 777.765506 233.92 781.911241 234.744638 785.77901 236.346721 
C 789.64678 237.948803 793.161364 240.297173 796.121627 243.257436 
C 799.081889 246.217698 801.43026 249.732283 803.032342 253.600052 
C 804.634424 257.467821 805.459062 261.613557 805.459062 265.8 
C 805.459062 269.986443 804.634424 274.132179 803.032342 277.999948 
C 801.43026 281.867717 799.081889 285.382302 796.121627 288.342564 
C 793.161364 291.302827 789.64678 293.651197 785.77901 295.253279 
C 781.911241 296.855362 777.765506 297.68 773.579062 297.68 
C 769.392619 297.68 765.246884 296.855362 761.379115 295.253279 
C 757.511345 293.651197 753.996761 291.302827 751.036498 288.342564 
C 748.076236 285.382302 745.727865 281.867717 744.125783 277.999948 
C 742.523701 274.132179 741.699062 269.986443 741.699062 265.8 
C 741.699062 261.613557 742.523701 257.467821 744.125783 253.600052 
C 745.727865 249.732283 748.076236 246.217698 751.036498 243.257436 
C 753.996761 240.297173 757.511345 237.948803 761.379115 236.346721 
C 765.246884 234.744638 769.392619 233.92 773.579062 233.92 
" clip-path="url(#p3843ee9997)" style="fill: none; stroke: #b0b0b0; stroke-width: 0.8; stroke-linecap: square"/>
     </g>
     <g id="text_17">
      <text style="font-size: 10px; font-family: 'DejaVu Sans', 'Bitstream Vera Sans', 'Computer Modern Sans Serif', 'Lucida Grande', 'Verdana', 'Geneva', 'Lucid', 'Arial', 'Helvetica', 'Avant Garde', sans-serif; text-anchor: start" x="785.77901" y="234.267033" transform="rotate(-0 785.77901 234.267033)">0.2</text>
     </g>
    </g>
    <g id="ytick_7">
     <g id="line2d_19">
      <path d="M 773.579062 202.04 
C 781.951949 202.04 790.24342 203.689276 797.978958 206.893441 
C 805.714497 210.097606 812.743666 214.794347 818.664191 220.714872 
C 824.584716 226.635396 829.281457 233.664566 832.485621 241.400104 
C 835.689786 249.135643 837.339062 257.427114 837.339062 265.8 
C 837.339062 274.172886 835.689786 282.464357 832.485621 290.199896 
C 829.281457 297.935434 824.584716 304.964604 818.664191 310.885128 
C 812.743666 316.805653 805.714497 321.502394 797.978958 324.706559 
C 790.24342 327.910724 781.951949 329.56 773.579062 329.56 
C 765.206176 329.56 756.914705 327.910724 749.179167 324.706559 
C 741.443628 321.502394 734.414459 316.805653 728.493934 310.885128 
C 722.573409 304.964604 717.876668 297.935434 714.672504 290.199896 
C 711.468339 282.464357 709.819062 274.172886 709.819062 265.8 
C 709.819062 257.427114 711.468339 249.135643 714.672504 241.400104 
C 717.876668 233.664566 722.573409 226.635396 728.493934 220.714872 
C 734.414459 214.794347 741.443628 210.097606 749.179167 206.893441 
C 756.914705 203.689276 765.206176 202.04 773.579062 202.04 
" clip-path="url(#p3843ee9997)" style="fill: none; stroke: #b0b0b0; stroke-width: 0.8; stroke-linecap: square"/>
     </g>
     <g id="text_18">
      <text style="font-size: 10px; font-family: 'DejaVu Sans', 'Bitstream Vera Sans', 'Computer Modern Sans Serif', 'Lucida Grande', 'Verdana', 'Geneva', 'Lucid', 'Arial', 'Helvetica', 'Avant Garde', sans-serif; text-anchor: start" x="797.978958" y="204.813754" transform="rotate(-0 797.978958 204.813754)">0.4</text>
     </g>
    </g>
    <g id="ytick_8">
     <g id="line2d_20">
      <path d="M 773.579062 170.16 
C 786.138392 170.16 798.575598 172.633914 810.178906 177.440162 
C 821.782214 182.246409 832.325968 189.29152 841.206755 198.172307 
C 850.087542 207.053095 857.132654 217.596849 861.938901 229.200157 
C 866.745148 240.803464 869.219062 253.24067 869.219062 265.8 
C 869.219062 278.35933 866.745148 290.796536 861.938901 302.399843 
C 857.132654 314.003151 850.087542 324.546905 841.206755 333.427693 
C 832.325968 342.30848 821.782214 349.353591 810.178906 354.159838 
C 798.575598 358.966086 786.138392 361.44 773.579062 361.44 
C 761.019733 361.44 748.582527 358.966086 736.979219 354.159838 
C 725.375911 349.353591 714.832157 342.30848 705.95137 333.427693 
C 697.070583 324.546905 690.025471 314.003151 685.219224 302.399843 
C 680.412977 290.796536 677.939062 278.35933 677.939062 265.8 
C 677.939062 253.24067 680.412977 240.803464 685.219224 229.200157 
C 690.025471 217.596849 697.070583 207.053095 705.95137 198.172307 
C 714.832157 189.29152 725.375911 182.246409 736.979219 177.440162 
C 748.582527 172.633914 761.019733 170.16 773.579062 170.16 
" clip-path="url(#p3843ee9997)" style="fill: none; stroke: #b0b0b0; stroke-width: 0.8; stroke-linecap: square"/>
     </g>
     <g id="text_19">
      <text style="font-size: 10px; font-family: 'DejaVu Sans', 'Bitstream Vera Sans', 'Computer Modern Sans Serif', 'Lucida Grande', 'Verdana', 'Geneva', 'Lucid', 'Arial', 'Helvetica', 'Avant Garde', sans-serif; text-anchor: start" x="810.178906" y="175.360474" transform="rotate(-0 810.178906 175.360474)">0.6</text>
     </g>
    </g>
    <g id="ytick_9">
     <g id="line2d_21">
      <path d="M 773.579062 138.28 
C 790.324835 138.28 806.907777 141.578552 822.378854 147.986882 
C 837.849931 154.395212 851.90827 163.788694 863.749319 175.629743 
C 875.590369 187.470793 884.983851 201.529132 891.39218 217.000209 
C 897.80051 232.471286 901.099062 249.054227 901.099062 265.8 
C 901.099062 282.545773 897.80051 299.128714 891.39218 314.599791 
C 884.983851 330.070868 875.590369 344.129207 863.749319 355.970257 
C 851.90827 367.811306 837.849931 377.204788 822.378854 383.613118 
C 806.907777 390.021448 790.324835 393.32 773.579062 393.32 
C 756.83329 393.32 740.250348 390.021448 724.779271 383.613118 
C 709.308194 377.204788 695.249855 367.811306 683.408806 355.970257 
C 671.567756 344.129207 662.174274 330.070868 655.765945 314.599791 
C 649.357615 299.128714 646.059062 282.545773 646.059062 265.8 
C 646.059062 249.054227 649.357615 232.471286 655.765945 217.000209 
C 662.174274 201.529132 671.567756 187.470793 683.408806 175.629743 
C 695.249855 163.788694 709.308194 154.395212 724.779271 147.986882 
C 740.250348 141.578552 756.83329 138.28 773.579062 138.28 
" clip-path="url(#p3843ee9997)" style="fill: none; stroke: #b0b0b0; stroke-width: 0.8; stroke-linecap: square"/>
     </g>
     <g id="text_20">
      <text style="font-size: 10px; font-family: 'DejaVu Sans', 'Bitstream Vera Sans', 'Computer Modern Sans Serif', 'Lucida Grande', 'Verdana', 'Geneva', 'Lucid', 'Arial', 'Helvetica', 'Avant Garde', sans-serif; text-anchor: start" x="822.378854" y="145.907195" transform="rotate(-0 822.378854 145.907195)">0.8</text>
     </g>
    </g>
    <g id="ytick_10">
     <g id="line2d_22">
      <path d="M 773.579062 106.4 
C 794.511279 106.4 815.239955 110.52319 834.578802 118.533603 
C 853.917648 126.544015 871.490571 138.285867 886.291883 153.087179 
C 901.093195 167.888491 912.835048 185.461415 920.84546 204.800261 
C 928.855872 224.139107 932.979062 244.867784 932.979062 265.8 
C 932.979062 286.732216 928.855872 307.460893 920.84546 326.799739 
C 912.835048 346.138585 901.093195 363.711509 886.291883 378.512821 
C 871.490571 393.314133 853.917648 405.055985 834.578802 413.066397 
C 815.239955 421.07681 794.511279 425.2 773.579062 425.2 
C 752.646846 425.2 731.91817 421.07681 712.579323 413.066397 
C 693.240477 405.055985 675.667554 393.314133 660.866242 378.512821 
C 646.06493 363.711509 634.323077 346.138585 626.312665 326.799739 
C 618.302253 307.460893 614.179062 286.732216 614.179062 265.8 
C 614.179062 244.867784 618.302253 224.139107 626.312665 204.800261 
C 634.323077 185.461415 646.06493 167.888491 660.866242 153.087179 
C 675.667554 138.285867 693.240477 126.544015 712.579323 118.533603 
C 731.91817 110.52319 752.646846 106.4 773.579062 106.4 
" clip-path="url(#p3843ee9997)" style="fill: none; stroke: #b0b0b0; stroke-width: 0.8; stroke-linecap: square"/>
     </g>
     <g id="text_21">
      <text style="font-size: 10px; font-family: 'DejaVu Sans', 'Bitstream Vera Sans', 'Computer Modern Sans Serif', 'Lucida Grande', 'Verdana', 'Geneva', 'Lucid', 'Arial', 'Helvetica', 'Avant Garde', sans-serif; text-anchor: start" x="834.578802" y="116.453915" transform="rotate(-0 834.578802 116.453915)">1.0</text>
     </g>
    </g>
   </g>
   <g id="line2d_23">
    <path d="M 773.579062 233.007902 
L 871.049607 265.8 
L 773.579062 400.390661 
L 709.666891 265.8 
L 773.579062 233.007902 
" clip-path="url(#p3843ee9997)" style="fill: none; stroke: #440154; stroke-width: 2.5; stroke-linecap: square"/>
   </g>
   <g id="line2d_24">
    <path d="M 773.579062 239.740054 
L 845.493306 265.8 
L 773.579062 418.997665 
L 711.949468 265.8 
L 773.579062 239.740054 
" clip-path="url(#p3843ee9997)" style="fill: none; stroke-dasharray: 7.4,3.2; stroke-dashoffset: 0; stroke: #21918c; stroke-width: 2"/>
   </g>
   <g id="patch_8">
    <path d="M 773.579062 106.4 
C 752.646846 106.4 731.91817 110.52319 712.579323 118.533603 
C 693.240477 126.544015 675.667554 138.285867 660.866242 153.087179 
C 646.06493 167.888491 634.323077 185.461415 626.312665 204.800261 
C 618.302253 224.139107 614.179062 244.867784 614.179062 265.8 
C 614.179062 286.732216 618.302253 307.460893 626.312665 326.799739 
C 634.323077 346.138585 646.06493 363.711509 660.866242 378.512821 
C 675.667554 393.314133 693.240477 405.055985 712.579323 413.066397 
C 731.91817 421.07681 752.646846 425.2 773.579062 425.2 
C 794.511279 425.2 815.239955 421.07681 834.578802 413.066397 
C 853.917648 405.055985 871.490571 393.314133 886.291883 378.512821 
C 901.093195 363.711509 912.835048 346.138585 920.84546 326.799739 
C 928.855872 307.460893 932.979062 286.732216 932.979062 265.8 
C 932.979062 244.867784 928.855872 224.139107 920.84546 204.800261 
C 912.835048 185.461415 901.093195 167.888491 886.291883 153.087179 
C 871.490571 138.285867 853.917648 126.544015 834.578802 118.533603 
C 815.239955 110.52319 794.511279 106.4 773.579062 106.4 
" style="fill: none; stroke: #000000; stroke-width: 0.8; stroke-linejoin: miter; stroke-linecap: square"/>
   </g>
   <g id="text_22">
    <text style="font-weight: 700; font-size: 14px; font-family: 'DejaVu Sans', 'Bitstream Vera Sans', 'Computer Modern Sans Serif', 'Lucida Grande', 'Verdana', 'Geneva', 'Lucid', 'Arial', 'Helvetica', 'Avant Garde', sans-serif; text-anchor: middle" x="773.579062" y="75.754062" transform="rotate(-0 773.579062 75.754062)">Curious</text>
   </g>
  </g>
  <g id="text_23">
   <text style="font-size: 16px; font-family: 'DejaVu Sans', 'Bitstream Vera Sans', 'Computer Modern Sans Serif', 'Lucida Grande', 'Verdana', 'Geneva', 'Lucid', 'Arial', 'Helvetica', 'Avant Garde', sans-serif; text-anchor: middle" x="508.394062" y="19.3575" transform="rotate(-0 508.394062 19.3575)">Behavioral Fingerprints (Real vs. Model)</text>
  </g>
 </g>
 <defs>
  <clipPath id="peace0c9dd9">
   <path d="M 398.379062 265.8 
C 398.379062 244.867784 394.255872 224.139107 386.24546 204.800261 
C 378.235048 185.461415 366.493195 167.888491 351.691883 153.087179 
C 336.890571 138.285867 319.317648 126.544015 299.978802 118.533603 
C 280.639955 110.52319 259.911279 106.4 238.979062 106.4 
C 218.046846 106.4 197.31817 110.52319 177.979323 118.533603 
C 158.640477 126.544015 141.067554 138.285867 126.266242 153.087179 
C 111.46493 167.888491 99.723077 185.461415 91.712665 204.800261 
C 83.702253 224.139107 79.579063 244.867784 79.579063 265.8 
C 79.579063 286.732216 83.702253 307.460893 91.712665 326.799739 
C 99.723077 346.138585 111.46493 363.711509 126.266242 378.512821 
C 141.067554 393.314133 158.640477 405.055985 177.979323 413.066397 
C 197.31817 421.07681 218.046846 425.2 238.979062 425.2 
C 259.911279 425.2 280.639955 421.07681 299.978802 413.066397 
C 319.317648 405.055985 336.890571 393.314133 351.691883 378.512821 
C 366.493195 363.711509 378.235048 346.138585 386.24546 326.799739 
C 394.255872 307.460893 398.379062 286.732216 398.379062 265.8 
M 238.979062 265.8 
C 238.979062 265.8 238.979062 265.8 238.979062 265.8 
C 238.979062 265.8 238.979062 265.8 238.979062 265.8 
C 238.979062 265.8 238.979062 265.8 238.979062 265.8 
C 238.979062 265.8 238.979062 265.8 238.979062 265.8 
C 238.979062 265.8 238.979062 265.8 238.979062 265.8 
C 238.979062 265.8 238.979062 265.8 238.979062 265.8 
C 238.979062 265.8 238.979062 265.8 238.979062 265.8 
C 238.979062 265.8 238.979062 265.8 238.979062 265.8 
C 238.979062 265.8 238.979062 265.8 238.979062 265.8 
C 238.979062 265.8 238.979062 265.8 238.979062 265.8 
C 238.979062 265.8 238.979062 265.8 238.979062 265.8 
C 238.979062 265.8 238.979062 265.8 238.979062 265.8 
C 238.979062 265.8 238.979062 265.8 238.979062 265.8 
C 238.979062 265.8 238.979062 265.8 238.979062 265.8 
C 238.979062 265.8 238.979062 265.8 238.979062 265.8 
C 238.979062 265.8 238.979062 265.8 238.979062 265.8 
z
"/>
  </clipPath>
  <clipPath id="p3843ee9997">
   <path d="M 932.979062 265.8 
C 932.979062 244.867784 928.855872 224.139107 920.84546 204.800261 
C 912.835048 185.461415 901.093195 167.888491 886.291883 153.087179 
C 871.490571 138.285867 853.917648 126.544015 834.578802 118.533603 
C 815.239955 110.52319 794.511279 106.4 773.579062 106.4 
C 752.646846 106.4 731.91817 110.52319 712.579323 118.533603 
C 693.240477 126.544015 675.667554 138.285867 660.866242 153.087179 
C 646.06493 167.888491 634.323077 185.461415 626.312665 204.800261 
C 618.302253 224.139107 614.179062 244.867784 614.179062 265.8 
C 614.179062 286.732216 618.302253 307.460893 626.312665 326.799739 
C 634.323077 346.138585 646.06493 363.711509 660.866242 378.512821 
C 675.667554 393.314133 693.240477 405.055985 712.579323 413.066397 
C 731.91817 421.07681 752.646846 425.2 773.579062 425.2 
C 794.511279 425.2 815.239955 421.07681 834.578802 413.066397 
C 853.917648 405.055985 871.490571 393.314133 886.291883 378.512821 
C 901.093195 363.711509 912.835048 346.138585 920.84546 326.799739 
C 928.855872 307.460893 932.979062 286.732216 932.979062 265.8 
M 773.579062 265.8 
C 773.579062 265.8 773.579062 265.8 773.579062 265.8 
C 773.579062 265.8 773.579062 265.8 773.579062 265.8 
C 773.579062 265.8 773.579062 265.8 773.579062 265.8 
C 773.579062 265.8 773.579062 265.8 773.579062 265.8 
C 773.579062 265.8 773.579062 265.8 773.579062 265.8 
C 773.579062 265.8 773.579062 265.8 773.579062 265.8 
C 773.579062 265.8 773.579062 265.8 773.579062 265.8 
C 773.579062 265.8 773.579062 265.8 773.579062 265.8 
C 773.579062 265.8 773.579062 265.8 773.579062 265.8 
C 773.579062 265.8 773.579062 265.8 773.579062 265.8 
C 773.579062 265.8 773.579062 265.8 773.579062 265.8 
C 773.579062 265.8 773.579062 265.8 773.579062 265.8 
C 773.579062 265.8 773.579062 265.8 773.579062 265.8 
C 773.579062 265.8 773.579062 265.8 773.579062 265.8 
C 773.579062 265.8 773.579062 265.8 773.579062 265.8 
C 773.579062 265.8 773.579062 265.8 773.579062 265.8 
z
"/>
  </clipPath>
 </defs>
</svg>
